<?xml version="1.0" encoding="utf-8"?>
<!-- Generator: Adobe Illustrator 16.0.0, SVG Export Plug-In . SVG Version: 6.00 Build 0)  -->
<!DOCTYPE svg PUBLIC "-//W3C//DTD SVG 1.1//EN" "http://www.w3.org/Graphics/SVG/1.1/DTD/svg11.dtd">
<svg version="1.1" id="Layer_1" xmlns="http://www.w3.org/2000/svg" xmlns:xlink="http://www.w3.org/1999/xlink" x="0px" y="0px"
	 width="46.333px" height="37.442px" viewBox="519.667 321 185.334 149.768" enable-background="new 519.667 321 185.334 149.768"
	 xml:space="preserve">
<polygon points="705.001,321 624.832,321 600.409,321 519.667,321 519.667,345.425 600.409,345.425 600.409,467.547
	624.832,467.547 624.832,345.425 705.001,345.425 "/>
<polygon points="661.029,367.812 642.921,367.812 642.921,379.007 661.029,379.007 661.029,390.2 624.814,390.2 624.814,345.423
	670.023,345.423 670.023,334.23 600.436,334.23 600.436,401.394 624.814,401.431 624.814,401.394 661.029,401.394 661.029,401.431
	670.08,401.431 670.08,401.394 670.08,390.2 670.08,379.007 670.08,367.812 "/>
<polygon points="600.409,470.768 670.107,470.768 670.107,456.629 624.884,456.629 624.884,401.307 600.453,401.307 "/>
</svg>
